D:\school\WTK\thesis\model\3dpredictsim\Results\Batchsim_tmt_linear\Pog_s1_tmt_bCst_d00_k250_ig24_pas_GRF.mot
nRows=27
nColumns=19

name D:\school\WTK\thesis\model\3dpredictsim\Results\Batchsim_tmt_linear\Pog_s1_tmt_bCst_d00_k250_ig24_pas_GRF.mot
datacolumns 19
datarows 27
range 0.0000000000 0.2940802091
endheader
time 	ground_force_vx	ground_force_vy	ground_force_vz	ground_force_px	ground_force_py	ground_force_pz	1_ground_force_vx	1_ground_force_vy	1_ground_force_vz	1_ground_force_px	1_ground_force_py	1_ground_force_pz	ground_torque_x	ground_torque_y	ground_torque_z	1_ground_torque_x	1_ground_torque_y	1_ground_torque_z
        0.0000000000	      -57.0285149937	       77.0463871349	       60.7987352838	        0.1773873101	        0.0000000000	        0.0343485038	       85.0672823081	      426.4001496598	       -7.2766750985	       -0.3262537174	        0.0000000000	       -0.0276320062	        0.0000000000	        0.0000000000	        0.0000000000	        0.0000000000	        0.0000000000	        0.0000000000	
        0.0113107773	      -51.1003408759	      178.4138191210	      104.3716053624	        0.1813503361	        0.0000000000	        0.0316547748	       65.2835880480	      339.8755408242	      -14.4331771692	       -0.3208423630	        0.0000000000	       -0.0259117966	        0.0000000000	        0.0000000000	        0.0000000000	        0.0000000000	        0.0000000000	        0.0000000000	
        0.0226215545	      -43.6195751886	      345.6946816772	       26.0321339531	        0.1841053670	        0.0000000000	        0.0289759483	       36.2532073975	      230.6465571880	      -10.7427868787	       -0.3098775597	        0.0000000000	       -0.0211199336	        0.0000000000	        0.0000000000	        0.0000000000	        0.0000000000	        0.0000000000	        0.0000000000	
        0.0339323318	      -54.8990000833	      539.0664604247	        0.1425204499	        0.1885021548	        0.0000000000	        0.0294673924	       17.3455756592	      152.0304704026	       -9.9982547235	       -0.2929029448	        0.0000000000	       -0.0123738262	        0.0000000000	        0.0000000000	        0.0000000000	        0.0000000000	        0.0000000000	        0.0000000000	
        0.0452431091	      -95.1496140349	      744.8591625469	       -9.3290521362	        0.1970817081	        0.0000000000	        0.0320049003	        1.2782687368	      123.0256225572	      -12.1262756057	       -0.2910149677	        0.0000000000	       -0.0111663336	        0.0000000000	        0.0000000000	        0.0000000000	        0.0000000000	        0.0000000000	        0.0000000000	
        0.0565538864	     -119.9569953678	      871.2346042139	      -12.0366975111	        0.2030264034	        0.0000000000	        0.0336895773	       -3.1454381033	       81.2861867390	      -10.2940918353	       -0.2905433012	        0.0000000000	       -0.0111493075	        0.0000000000	        0.0000000000	        0.0000000000	        0.0000000000	        0.0000000000	        0.0000000000	
        0.0678646636	     -125.6050244115	      905.1450653489	      -13.2873278540	        0.2070199531	        0.0000000000	        0.0346682902	       -7.6593641588	       33.6083030787	       -5.9400946878	       -0.2905218296	        0.0000000000	       -0.0110958106	        0.0000000000	        0.0000000000	        0.0000000000	        0.0000000000	        0.0000000000	        0.0000000000	
        0.0791754409	     -118.1584413176	      888.2472934469	      -13.5606405366	        0.2100783954	        0.0000000000	        0.0352330431	        0.0378376921	       -0.0374356342	        0.0006955728	        0.0000000000	        0.0000000000	        0.0000000000	        0.0000000000	        0.0000000000	        0.0000000000	        0.0000000000	        0.0000000000	        0.0000000000	
        0.0904862182	     -104.8552370683	      849.9382713209	      -14.5580533703	        0.2130501533	        0.0000000000	        0.0355186238	        0.0000053541	       -0.0000042989	       -0.0000003795	        0.0000000000	        0.0000000000	        0.0000000000	        0.0000000000	        0.0000000000	        0.0000000000	        0.0000000000	        0.0000000000	        0.0000000000	
        0.1017969955	      -90.7164335378	      801.8971465408	      -14.4358349977	        0.2161893785	        0.0000000000	        0.0356605688	        0.0000053624	       -0.0000037974	       -0.0000004489	        0.0000000000	        0.0000000000	        0.0000000000	        0.0000000000	        0.0000000000	        0.0000000000	        0.0000000000	        0.0000000000	        0.0000000000	
        0.1131077727	      -77.8546540288	      755.9576808617	      -14.4833166929	        0.2195039688	        0.0000000000	        0.0357202968	        0.0001031971	       -0.0000655391	       -0.0000094146	        0.0000000000	        0.0000000000	        0.0000000000	        0.0000000000	        0.0000000000	        0.0000000000	        0.0000000000	        0.0000000000	        0.0000000000	
        0.1244185500	      -66.6824901112	      719.1566945504	      -14.7536449376	        0.2234616612	        0.0000000000	        0.0356790463	        0.0032636083	       -0.0018991379	       -0.0003125674	        0.0000000000	        0.0000000000	        0.0000000000	        0.0000000000	        0.0000000000	        0.0000000000	        0.0000000000	        0.0000000000	        0.0000000000	
        0.1357293273	      -56.5768736626	      688.1128593913	      -15.3729385227	        0.2277405073	        0.0000000000	        0.0355777068	       -0.0165658066	        0.0089579857	        0.0016430103	        0.0000000000	        0.0000000000	        0.0000000000	        0.0000000000	        0.0000000000	        0.0000000000	        0.0000000000	        0.0000000000	        0.0000000000	
        0.1470401046	      -47.3190569131	      660.3381349669	      -16.3466807458	        0.2320981283	        0.0000000000	        0.0354952753	       -0.0116285672	        0.0059098244	        0.0011948761	        0.0000000000	        0.0000000000	        0.0000000000	        0.0000000000	        0.0000000000	        0.0000000000	        0.0000000000	        0.0000000000	        0.0000000000	
        0.1583508818	      -39.5916760885	      636.4341813018	      -17.4717420945	        0.2365800509	        0.0000000000	        0.0354478414	       -0.0085302781	        0.0041123404	        0.0009080796	        0.0000000000	        0.0000000000	        0.0000000000	        0.0000000000	        0.0000000000	        0.0000000000	        0.0000000000	        0.0000000000	        0.0000000000	
        0.1696616591	      -33.2724732729	      617.3621633935	      -18.3428101880	        0.2411304553	        0.0000000000	        0.0354295963	       -0.0083483758	        0.0038454113	        0.0009204848	        0.0000000000	        0.0000000000	        0.0000000000	        0.0000000000	        0.0000000000	        0.0000000000	        0.0000000000	        0.0000000000	        0.0000000000	
        0.1809724364	      -28.0913607911	      602.7059625252	      -19.0487413328	        0.2457263249	        0.0000000000	        0.0354270126	       -0.0111113379	        0.0049204501	        0.0012647001	        0.0000000000	        0.0000000000	        0.0000000000	        0.0000000000	        0.0000000000	        0.0000000000	        0.0000000000	        0.0000000000	        0.0000000000	
        0.1922832136	      -23.7140980817	      592.3412365773	      -19.3802930930	        0.2505898939	        0.0000000000	        0.0354187599	       -0.0190931375	        0.0081724538	        0.0022307235	        0.0000000000	        0.0000000000	        0.0000000000	        0.0000000000	        0.0000000000	        0.0000000000	        0.0000000000	        0.0000000000	        0.0000000000	
        0.2035939909	      -21.3859331912	      586.3863643556	      -19.3949270514	        0.2557910621	        0.0000000000	        0.0353739323	       -0.0390511887	        0.0162341678	        0.0046572217	        0.0000000000	        0.0000000000	        0.0000000000	        0.0000000000	        0.0000000000	        0.0000000000	        0.0000000000	        0.0000000000	        0.0000000000	
        0.2149047682	      -19.5471299350	      583.8346005382	      -19.1128596746	        0.2612715863	        0.0000000000	        0.0352768117	       -0.0869424858	        0.0352534683	        0.0105203443	        0.0000000000	        0.0000000000	        0.0000000000	        0.0000000000	        0.0000000000	        0.0000000000	        0.0000000000	        0.0000000000	        0.0000000000	
        0.2262155455	      -18.0256109406	      582.9457634414	      -18.2622284401	        0.2669598020	        0.0000000000	        0.0351276373	       -0.1930497127	        0.0766521037	        0.0234814640	        0.0000000000	        0.0000000000	        0.0000000000	        0.0000000000	        0.0000000000	        0.0000000000	        0.0000000000	        0.0000000000	        0.0000000000	
        0.2375263227	      -16.3903265584	      582.9681218463	      -17.3183015116	        0.2727944926	        0.0000000000	        0.0349272560	       -0.3955600348	        0.1543815837	        0.0479001327	        0.0000000000	        0.0000000000	        0.0000000000	        0.0000000000	        0.0000000000	        0.0000000000	        0.0000000000	        0.0000000000	        0.0000000000	
        0.2488371000	      -14.7623487718	      582.7120963450	      -16.4537659418	        0.2787084447	        0.0000000000	        0.0346861239	       -0.7107670725	        0.2736061602	        0.0851169157	        0.0000000000	        0.0000000000	        0.0000000000	        0.0000000000	        0.0000000000	        0.0000000000	        0.0000000000	        0.0000000000	        0.0000000000	
        0.2601478773	      -12.9046804265	      581.4064807296	      -15.4558998568	        0.2846176467	        0.0000000000	        0.0344242860	       -1.0935988072	        0.4164471998	        0.1288259790	        0.0000000000	        0.0000000000	        0.0000000000	        0.0000000000	        0.0000000000	        0.0000000000	        0.0000000000	        0.0000000000	        0.0000000000	
        0.2714586546	      -10.6665677604	      578.3136566144	      -14.4720349099	        0.2904599435	        0.0000000000	        0.0341532400	       -1.4387324508	        0.5433279843	        0.1653734108	        0.0000000000	        0.0000000000	        0.0000000000	        0.0000000000	        0.0000000000	        0.0000000000	        0.0000000000	        0.0000000000	        0.0000000000	
        0.2827694318	       -7.5339106947	      572.9402561659	      -13.3426236175	        0.2962305875	        0.0000000000	        0.0338788213	       -1.6461163957	        0.6175722305	        0.1825588197	        0.0000000000	        0.0000000000	        0.0000000000	        0.0000000000	        0.0000000000	        0.0000000000	        0.0000000000	        0.0000000000	        0.0000000000	
        0.2940802091	       -3.4526871114	      566.1117034956	      -11.7305736168	        0.3020522312	        0.0000000000	        0.0335926187	       -1.6833266880	        0.6280016950	        0.1772098408	        0.0000000000	        0.0000000000	        0.0000000000	        0.0000000000	        0.0000000000	        0.0000000000	        0.0000000000	        0.0000000000	        0.0000000000	
